<svg width="220" height="204" fill="none" xmlns="http://www.w3.org/2000/svg"><g clip-path="url(#clip0)"><path fill="#9AA0A6" d="M14 44h192v112H14z"/><ellipse cx="110" cy="46" rx="12" ry="4" fill="#9AA0A6"/><ellipse cx="110" cy="154" rx="12" ry="4" fill="#9AA0A6"/><path fill="#fff" d="M18 48h90v104H18zM112 48h90v104h-90z"/><circle cx="98.5" cy="66.5" r="2.5" fill="#DADCE0"/><circle cx="121.5" cy="66.5" r="2.5" fill="#DADCE0"/><circle cx="98.5" cy="98.5" r="2.5" fill="#DADCE0"/><circle cx="121.5" cy="98.5" r="2.5" fill="#DADCE0"/><circle cx="98.5" cy="130.5" r="2.5" fill="#DADCE0"/><circle cx="121.5" cy="130.5" r="2.5" fill="#DADCE0"/><mask id="a" maskUnits="userSpaceOnUse" x="98" y="56" width="24" height="12"><path d="M122 68a11.998 11.998 0 00-12-12 11.998 11.998 0 00-12 12h24z" fill="#9AA0A6"/></mask><g mask="url(#a)"><circle cx="110" cy="68" r="11.5" stroke="#5F6368"/></g><mask id="b" maskUnits="userSpaceOnUse" x="98" y="88" width="24" height="12"><path d="M122 100a11.998 11.998 0 00-12-12 11.998 11.998 0 00-12 12h24z" fill="#9AA0A6"/></mask><g mask="url(#b)"><circle cx="110" cy="100" r="11.5" stroke="#5F6368"/></g><mask id="c" maskUnits="userSpaceOnUse" x="98" y="120" width="24" height="12"><path d="M122 132c0-3.183-1.264-6.235-3.515-8.485a11.996 11.996 0 00-16.97 0A11.997 11.997 0 0098 132h24z" fill="#9AA0A6"/></mask><g mask="url(#c)"><circle cx="110" cy="132" r="11.5" stroke="#5F6368"/></g><path fill="#F1F3F4" d="M22 100h33v33H22zM39 56h53v40H39zM59 100h33v44H59zM128 56h33v44h-33zM165 67h33v33h-33zM128 104h53v40h-53z"/><path d="M42.61 85.746L1.008 91.844l8.131 55.47 41.603-6.098-8.132-55.47z" fill="#FBBC04"/><path d="M16.065 109.731l4.032-5.418a7.904 7.904 0 015.165-3.066l3.287-.481a7.904 7.904 0 005.164-3.066l8.898-11.955-11.659 1.71-2.893 3.886a6.726 6.726 0 01-4.387 2.637l-2.825.414a6.725 6.725 0 00-4.388 2.637l-3.419 4.594a6.726 6.726 0 01-4.388 2.637l-5.65.828 1.288 8.783 6.677-.979c1.996-.345 3.878-1.461 5.098-3.161z" fill="#D2E3FC"/><path d="M13.033 101.57l3.418-4.593a6.725 6.725 0 014.388-2.637l2.825-.414a6.726 6.726 0 004.388-2.637l2.893-3.887-29.893 4.382 1.936 13.2 5.65-.828c1.753-.205 3.343-1.172 4.395-2.586zM19.04 116.063l4.69-6.301a9.195 9.195 0 016.028-3.612l3.852-.565a9.198 9.198 0 006.029-3.612l4.514-6.066-1.49-10.17-8.898 11.956a7.899 7.899 0 01-5.165 3.065l-3.287.482a7.9 7.9 0 00-5.164 3.066l-4.033 5.417a7.9 7.9 0 01-5.164 3.066l-6.677.979 1.024 6.985 7.756-1.137a9.116 9.116 0 005.984-3.553z" fill="#4285F4"/><path d="M37.649 130.28l8.53-8.385c2.845-2.779.463-7.571-3.44-6.999l-11.865 1.74c-1.746.256-3.452-.649-4.266-2.261l-5.295-10.713c-1.783-3.569-7.021-2.801-7.705 1.129l-1.997 11.783c-.317 1.778-1.692 3.134-3.438 3.39l-2.98.436 3.939 26.862 31.484-4.615-3.794-7.629c-.754-1.568-.46-3.5.827-4.738z" fill="#EA4335"/><path d="M27.584 128.188a6.513 6.513 0 01-5.523 7.42 6.513 6.513 0 01-7.42-5.523 6.513 6.513 0 015.523-7.42c3.595-.527 6.9 1.979 7.42 5.523z" fill="#C5221F"/><path d="M37.814 109.217a2.548 2.548 0 00-2.148 2.886l5.034-.738a2.548 2.548 0 00-2.886-2.148z" fill="#F29900"/></g><defs><clipPath id="clip0"><path fill="#fff" d="M0 0h220v204H0z"/></clipPath></defs></svg>